<svg width="24" height="24" viewBox="0 0 24 24" fill="none" xmlns="http://www.w3.org/2000/svg">
<path fill-rule="evenodd" clip-rule="evenodd" d="M12.9996 8.09479H10.9996V13.5048L14.7896 17.3048L16.2096 15.8848L12.9996 12.6848V8.09479ZM11.9996 4.09479C7.02959 4.09479 2.99959 8.12479 2.99959 13.0948C2.99959 18.0648 7.02959 22.0948 11.9996 22.0948C16.9696 22.0948 20.9996 18.0648 20.9996 13.0948C20.9996 8.12479 16.9696 4.09479 11.9996 4.09479ZM11.9996 20.0948C8.13959 20.0948 4.99959 16.9548 4.99959 13.0948C4.99959 9.23479 8.13959 6.09479 11.9996 6.09479C15.8596 6.09479 18.9996 9.23479 18.9996 13.0948C18.9996 16.9548 15.8596 20.0948 11.9996 20.0948ZM16.056 3.44129L17.3372 1.90549L21.9446 5.74909L20.6634 7.28488L16.056 3.44129ZM2.05539 5.74849L6.66279 1.90479L7.94399 3.44059L3.33659 7.28429L2.05539 5.74849Z" fill="#2C0050"/>
</svg>
